<svg xmlns="http://www.w3.org/2000/svg" width="196" height="32" viewBox="0 0 196 32">
  <defs>
    <linearGradient id="bg" x1="0%" y1="0%" x2="100%" y2="100%">
      <stop offset="0%" stop-color="#04B7FB"/>
      <stop offset="100%" stop-color="#039BE5"/>
    </linearGradient>
  </defs>
  <!-- Background -->
  <rect width="196" height="32" rx="4.5" fill="url(#bg)"/>

  <!-- EdgeOne shield + network icon -->
  <g transform="translate(10, 6) scale(0.4167)" fill="#FFFFFF">
    <!-- Shield outline -->
    <path d="M43.5 2.25H4.5V25.05C4.5 25.05 4.65 41.25 24 45.75C43.35 41.25 43.5 25.05 43.5 25.05V11.25H40.5V25.05C40.3325 27.5743 39.6158 30.0315 38.4 32.25C35.7 37.35 30.75 40.8 24 42.6C7.95 38.7 7.5 25.65 7.5 25.05V5.25H43.5V2.25Z"/>
    <!-- Network nodes -->
    <path fill-rule="evenodd" clip-rule="evenodd" d="M27.5098 17.2487C28.2229 17.7234 29.0791 18 30 18C32.4853 18 34.5 15.9853 34.5 13.5C34.5 11.0147 32.4853 9 30 9C27.5147 9 25.5 11.0147 25.5 13.5C25.5 13.9595 25.5689 14.4028 25.6968 14.8204L21.7311 16.9835C20.9224 15.7868 19.5531 15 18 15C15.5147 15 13.5 17.0147 13.5 19.5C13.5 21.9853 15.5147 24 18 24C19.3877 24 20.6288 23.3718 21.4542 22.3843L25.2487 25.4199L21.1516 28.2879C20.3398 27.4913 19.2273 27 18 27C15.5147 27 13.5 29.0147 13.5 31.5C13.5 33.9853 15.5147 36 18 36C20.4853 36 22.5 33.9853 22.5 31.5C22.5 31.339 22.4915 31.18 22.4751 31.0234L26.4375 28.2497C27.2605 29.3144 28.5502 30 30 30C32.4853 30 34.5 27.9853 34.5 25.5C34.5 23.0147 32.4853 21 30 21C28.6123 21 27.3712 21.6282 26.5458 22.6157L22.9477 19.7372L27.5098 17.2487ZM30 15C29.1716 15 28.5 14.3284 28.5 13.5C28.5 12.6716 29.1716 12 30 12C30.8284 12 31.5 12.6716 31.5 13.5C31.5 14.3284 30.8284 15 30 15ZM28.63 26.1116L28.6719 24.8021C28.923 24.3252 29.4235 24 30 24C30.8284 24 31.5 24.6716 31.5 25.5C31.5 26.3284 30.8284 27 30 27C29.3894 27 28.864 26.6352 28.63 26.1116ZM19.4499 19.114L19.3603 20.133C19.1216 20.6451 18.6022 21 18 21C17.1716 21 16.5 20.3284 16.5 19.5C16.5 18.6716 17.1716 18 18 18C18.695 18 19.2796 18.4726 19.4499 19.114ZM18 33C17.1716 33 16.5 32.3284 16.5 31.5C16.5 30.6716 17.1716 30 18 30C18.8284 30 19.5 30.6716 19.5 31.5C19.5 32.3284 18.8284 33 18 33Z"/>
  </g>

  <!-- Text -->
  <text x="36" y="20" fill="#FFFFFF" font-family="-apple-system, BlinkMacSystemFont, 'Segoe UI', Roboto, Helvetica, Arial, sans-serif" font-size="13" font-weight="600" letter-spacing="0.3">Deploy to EdgeOne Pages</text>
</svg>
